<svg viewBox="0 0 95.09 109.81" xmlns="http://www.w3.org/2000/svg"><g fill="none"><path d="m79.85 19.79v14.72" stroke="#484747" stroke-linecap="round" stroke-miterlimit="10" stroke-width="5.03"/><path d="m602.5 180.78h-6.8a9.11 9.11 0 0 1 -9-9.14v-81.64a9.11 9.11 0 0 1 9-9.14h51.21" stroke="#464646" stroke-linecap="round" stroke-miterlimit="10" stroke-width="5.03" transform="translate(-584.15 -78.32)"/><path d="m62.18 102.46h-20.5" stroke="#464646" stroke-linecap="round" stroke-linejoin="round" stroke-width="5.03"/><path d="m79.85 64.75v11.56" stroke="#464646" stroke-linecap="round" stroke-linejoin="round" stroke-width="4.86"/><path d="m648.81 81.84v.22 9a4.46 4.46 0 0 0 4.42 4.47h10" stroke="#464646" stroke-linejoin="round" stroke-width="5.03" transform="translate(-584.15 -78.32)"/><path d="m623.21 177.4 45.46-46a8.05 8.05 0 0 0 0-11.26 7.84 7.84 0 0 0 -11.14 0l-45.46 46" stroke="#e18f45" stroke-linecap="round" stroke-linejoin="round" stroke-width="3.02" transform="translate(-584.15 -78.32)"/><path d="m609.38 169.36-2.84 14.22 13.16-3.6" stroke="#e18f45" stroke-linecap="round" stroke-linejoin="round" stroke-width="3.02" transform="translate(-584.15 -78.32)"/><path d="m79.85 45.79-45.75 46.52" stroke="#e18f45" stroke-linecap="round" stroke-linejoin="round" stroke-width="2.01"/></g><path d="m626.5 130.56c-.75-1.83 0-2-.5-6.74-.43-3.71-.64-5.57-1.83-7.58a12.87 12.87 0 0 0 -6.33-5.23c-1.89-.76-3.76-.79-7.5-.84-2.89 0-6.79-.1-7.08 1.05-.15.61.73 1.36 1.39 1.84l.14.09a58.15 58.15 0 0 1 6.8 3.25c3.73 2.1 4.47 3.06 4.83 4a8 8 0 0 1 0 4.42 15 15 0 0 1 -1.62 4.3 8.55 8.55 0 0 1 -2.37 2.91 8 8 0 0 1 -5.21 1.43 20 20 0 0 1 -11.5-5.73 1.48 1.48 0 0 0 -1.21-.46c-.35.27.14 1.56.42 2.06a29.2 29.2 0 0 0 5.29 7.08c2.92 2.67 4.38 4 5.67 4.55 4.63 1.94 6.59-.89 11 .84 4.18 1.65 4.91 5.17 7.5 4.72 1.11-.19 1.21-.87 4.33-4 3.6-3.66 4.49-3.8 4.5-4.89-.03-2.57-4.95-2.74-6.72-7.07z" fill="#e18f45" transform="translate(-584.15 -78.32)"/><path d="m649.51 169.45c.7 1.68 0 1.85.52 6.21.43 3.42.64 5.13 1.75 7a11.88 11.88 0 0 0 5.89 4.77c1.76.69 3.48.69 6.93.72 2.67 0 6.27 0 6.53-1 .14-.56-.68-1.24-1.3-1.68l-.13-.08a53.75 53.75 0 0 1 -6.31-2.95c-3.47-1.9-4.15-2.79-4.5-3.69a7.39 7.39 0 0 1 0-4.08 13.82 13.82 0 0 1 1.47-4 7.89 7.89 0 0 1 2.17-2.7 7.37 7.37 0 0 1 4.8-1.36 18.52 18.52 0 0 1 10.67 5.15 1.37 1.37 0 0 0 1.12.42c.32-.25-.15-1.44-.4-1.9a26.92 26.92 0 0 0 -4.94-6.48c-2.72-2.44-4.07-3.66-5.27-4.15-4.29-1.76-6.08.88-10.17-.69-3.88-1.48-4.57-4.72-7-4.29-1 .18-1.11.81-4 3.76-3.3 3.4-4.12 3.54-4.12 4.54.08 2.37 4.63 2.5 6.29 6.48z" fill="#e18f45" transform="translate(-584.15 -78.32)"/><path d="m79.72 18.57-16.12-15.85" fill="none" stroke="#484747" stroke-linecap="round" stroke-miterlimit="10" stroke-width="5.03"/></svg>