<svg viewBox="0 0 74 109.62" xmlns="http://www.w3.org/2000/svg"><g fill="#e18f45"><path d="m153.76 187.58h25.24s-.25-5.36 0-9.27-2.62-4.91-4.77-4.91h-15.23z" transform="translate(-128.52 -77.96)"/><path d="m179.13 187.58h-25.25s.25-5.36 0-9.27 2.62-4.91 4.77-4.91h15.25z" transform="translate(-128.52 -77.96)"/><circle cx="37.92" cy="85.23" r="7.52"/><path d="m185.82 172.93h16.62s-.17-3.52 0-6.09-1.72-3.22-3.14-3.22h-10z" transform="translate(-128.52 -77.96)"/><path d="m202.52 172.93h-16.62s.17-3.52 0-6.09 1.72-3.22 3.14-3.22h10z" transform="translate(-128.52 -77.96)"/><circle cx="65.65" cy="78.93" r="4.95"/><path d="m128.52 173h16.62s-.17-3.52 0-6.09-1.72-3.22-3.14-3.22h-10z" transform="translate(-128.52 -77.96)"/><path d="m145.23 173h-16.63s.17-3.52 0-6.09 1.72-3.22 3.14-3.22h10z" transform="translate(-128.52 -77.96)"/><circle cx="8.35" cy="78.96" r="4.95"/></g><path d="m167.44 143.37c-10.45 0-18.92-14.07-18.92-31.42s8.48-31.43 18.92-31.43" fill="none" stroke="#464646" stroke-miterlimit="10" stroke-width="5" transform="translate(-128.52 -77.96)"/><path d="m187.19 88.55a32.26 32.26 0 0 1 -44.06.75" fill="none" stroke="#464646" stroke-miterlimit="10" stroke-width="5" transform="translate(-128.52 -77.96)"/><path d="m143.53 135.54c5.7-7 13.64-11.31 22.42-11.31 8.38 0 16 3.95 21.63 10.38" fill="none" stroke="#464646" stroke-miterlimit="10" stroke-width="5" transform="translate(-128.52 -77.96)"/><path d="m164.72 143.37c10.33 0 18.71-14.07 18.71-31.42s-8.38-31.42-18.71-31.42" fill="none" stroke="#464646" stroke-miterlimit="10" stroke-width="5" transform="translate(-128.52 -77.96)"/><circle cx="37.03" cy="33.99" fill="none" r="31.49" stroke="#464646" stroke-miterlimit="10" stroke-width="5"/><path d="m35.36 2.5h3.34v62.92h-3.34z" fill="#464646"/><path d="m163.88 80.46h3.34v62.91h-3.34z" fill="#464646" transform="matrix(0 -1 1 0 -74.88 199.51)"/></svg>