<svg enable-background="new 0 0 500 500" viewBox="0 0 500 500" xmlns="http://www.w3.org/2000/svg"><path d="m397.2 191.2c-20.2-15.2-19.8-14.7-37.8 2.5-22.4 21.5-34.9 31.7-58.9 53.9-11.5-11-26.7-24.7-40.7-39.4-11.2-11.7-23.8-16.7-40.1-16.4-37.8.8-75.4.4-113.2.1-11.6-.1-20.8 3.6-28.5 12.5-22 24.9-44.6 49.2-66.2 74.3-9.9 11.5-9.4 24.3 1.5 34.8 22.6 21.7 46.2 42.6 69.5 63.7 5.6 4.9 11.5 4.4 16.7-1.1 8-8.8 16-17.6 23.9-26.4 5.3-5.9 4.3-11.1-1.6-16.3-12.2-10.5-24.2-21.2-36.2-31.8-2.9-2.5-5.6-5.1-10.9-10 9.4-8.6 18.4-16.3 26.9-24.3 7.6-7.2 14.7-14.9 21.9-22.6 5.5-5.9 11.3-6.8 17.2-1 21.2 20.8 42.4 41.6 63.6 62.5 5.9 5.8 5.3 11.4-.4 17.2-30.2 30.5-60.4 61.2-90.5 91.9-7 7.1-13 6.7-19.5-.4-3-3.2-6.6-5.7-9.9-8.6l-3.5 1.3c-.5 16.6-1.8 33.3-1.4 49.9.1 7.6 7.2 8.2 13.5 8.2h77.6 67.1c14.4 0 16.1-1.5 15.6-15.5-1.8-51.7-3.7-103.3-5.6-155-.1-4.4 0-8.8 0-16.6 5.3 4.3 8.1 6.5 10.8 8.8 11.2 10 21.9 20.6 33.5 30.1 9.6 7.8 19.3 7.6 28.5-.8 14.2-13 27.5-26.8 41-40.4 18.2-18.3 25.7-26.1 43.7-44.7 14.3-14.7 14.3-14.7 2.5-31.1l86.4-90.7c2.5-2.7 6.4-8.3 2.5-12.1-5.3-5.2-9.1-1.3-12.8 2.5z"/><path d="m165.7 183.6c36.3.1 65.9-29.1 66-65.4 0-.1 0-.1 0-.2.1-36.9-29.9-66.8-66.5-66.3-36.5.5-65.6 30.6-64.9 67.1.5 35.7 29.6 64.5 65.4 64.8z"/></svg>