<svg id="Layer_1" data-name="Layer 1" xmlns="http://www.w3.org/2000/svg" viewBox="0 0 225.68 213.11">
	<defs>
		<style>
			.cls-1{fill:rgb(202,16,29);}
			.cls-2{fill:rgb(255,255,255);}
			.cls-3{fill:rgb(202,16,29);}
			.cls-4{fill:rgb(202,16,29);}
			.cls-5{fill:rgb(202,16,29);}
		</style>
	</defs>
	<title>benefit-6</title>
	<circle class="cls-1" cx="112.84" cy="106.35" r="93.5"/>
	<path class="cls-2" d="M78.41,107.83c-10.2-6-11-10.11-4.25-19.88a187.41,187.41,0,0,0,10-16.11c2-3.57,4.48-4.6,8.41-4.54q20.65.35,41.31,0c4.11-.08,7,1,9.37,4.41,3,4.29,6.77,8,9.74,12.33,1.89,2.74,4.12,6.39-1.66,7.75-1.81.42-2.31,1.46-1.38,2.7,2.82,3.74,2.88,8.92,6.57,12.18,1.46,1.3,1.76,2.72.16,4.35-3.66,3.73-3,7.87-.34,11.67,1.84,2.62,2.26,3.79-1.52,4.54-5.14,1-8.85,3.51-7.56,9.82.35,1.74,0,3.67,2.49,3.82,2.07.12,2.62,1.22,2.31,3s-1.9,1.46-3.08,1.46c-23.83,0-47.65,0-71.47-.07-4.66,0-7.87-2.81-9.12-7.18-1.31-4.55-.38-9,4-11.4,3.31-1.76,3.34-3.2,1.89-6.28C71.93,115.27,74.64,111.27,78.41,107.83Z"/>
	<path class="cls-3" d="M115.34,111.15c10,0,20.06.2,30.07-.09,4.09-.12,4.9,1.64,4.4,5-.41,2.79,1.78,6.81-4.09,6.76-20.27-.19-40.54-.07-60.81-.09-3.77,0-6.55-1.66-6.59-5.67,0-4.35,2.81-5.94,6.94-5.92C95.28,111.2,105.31,111.15,115.34,111.15Z"/>
	<path class="cls-4" d="M110.76,91.76c9.61,0,19.22.17,28.82-.08,4.07-.1,5.8.78,5.82,5.35s-1.59,5.84-6.05,5.79c-18.56-.22-37.12-.08-55.68-.1-4.24,0-9,.18-9-5.83s4.73-5.1,8.58-5.11C92.41,91.74,101.59,91.76,110.76,91.76Z"/>
	<path class="cls-5" d="M108.91,140.92c-9.39,0-18.78,0-28.18,0-4.34,0-8.33-1-8.2-6.13.12-4.81,4-5.49,8-5.47,19.22.08,38.44.18,57.66-.07,4.46-.06,5.07,1.8,4.77,5.42-.25,3.15,1,6.59-4.62,6.35C128.58,140.62,118.74,140.92,108.91,140.92Z"/>
	<script xmlns="http://www.w3.org/2000/svg" type="text/javascript">

		var params = {};
        location.search.replace(/[?&amp;]+([^=&amp;]+)=([^&amp;]*)/gi,function(s,k,v){params[k]=v});
       
        var color1 = params['cls1'];
        if( !color1 || color1 == '' ) color1 = 'rgb( 85, 85, 85)';
        var color2 = params['cls2'];
        if( !color2 || color2 == '' ) color2 = 'rgb(255,255,255)';
        
		var cls1 = document.getElementsByClassName("cls-1");
		var i = 0;
		while(typeof cls1[i] !== 'undefined') {
			cls1[i].style.fill = color1;
			i++;
		}

		var cls2 = document.getElementsByClassName("cls-2");
		var i = 0;
		while(typeof cls2[i] !== 'undefined') {
			cls2[i].style.fill = color2;
			i++;
		}

		var cls3 = document.getElementsByClassName("cls-3");
		var i = 0;
		while(typeof cls3[i] !== 'undefined') {
			cls3[i].style.fill = color1;
			i++;
		}

		var cls4 = document.getElementsByClassName("cls-4");
		var i = 0;
		while(typeof cls4[i] !== 'undefined') {
			cls4[i].style.fill = color1;
			i++;
		}

		var cls5 = document.getElementsByClassName("cls-5");
		var i = 0;
		while(typeof cls5[i] !== 'undefined') {
			cls5[i].style.fill = color1;
			i++;
		}
		
	</script>
</svg>