<svg viewBox="0 0 123.12 110.47" xmlns="http://www.w3.org/2000/svg"><g fill="none"><path d="m38.02 103.63v-15.25" stroke="#e18f45" stroke-miterlimit="10" stroke-width="3"/><path d="m85.1 89.88h-47.08" stroke="#e18f45" stroke-miterlimit="10" stroke-width="3"/><path d="m85.1 104.63v-16.25" stroke="#e18f45" stroke-miterlimit="10" stroke-width="3"/><path d="m62.02 76.51v27.12" stroke="#e18f45" stroke-miterlimit="10" stroke-width="3"/></g><circle cx="38.02" cy="103.63" fill="#e18f45" r="6.83"/><circle cx="62.02" cy="103.63" fill="#e18f45" r="6.83"/><circle cx="85.1" cy="103.63" fill="#e18f45" r="6.83"/><path d="m509.2 105.17c-.3-1.49-2.62-12.26-12.17-16.83a21.26 21.26 0 0 0 -9.67-2 22.38 22.38 0 0 0 -13.33 5 23.43 23.43 0 0 0 -6.75-6.87 24.81 24.81 0 0 0 -14.5-3.87 21.16 21.16 0 0 0 -10.6 2.4 22.73 22.73 0 0 0 -8.48 8.85c-4.06 6.89-1.83 8.5-5.27 13.48-2.54 3.68-5 3.52-9.23 7.69a34.42 34.42 0 0 0 -6.83 9.55 25.66 25.66 0 0 0 -1 10.45 27.37 27.37 0 0 0 1.83 7 27.8 27.8 0 0 0 7.25 10 17.11 17.11 0 0 0 11.5 4.35l83.53-.4c6.72 0 12.22-12.22 12.22-12.22a49.51 49.51 0 0 0 1.17-19.36 25.93 25.93 0 0 0 -4.75-8.41 27.18 27.18 0 0 0 -14.92-8.81z" fill="none" stroke="#484747" stroke-linejoin="round" stroke-width="5" transform="translate(-408.71 -78.12)"/><path d="m466.32 134.17a16.55 16.55 0 0 1 -12.06 6.32c-6.47.28-15.57-4.21-16.6-13.21a15 15 0 0 1 13.21-16.6 17.51 17.51 0 0 1 4.51.17 17.84 17.84 0 0 1 5.69 2.38 32.14 32.14 0 0 1 3.17 2" fill="none" stroke="#e18f45" stroke-linecap="round" stroke-linejoin="round" stroke-width="3" transform="translate(-408.71 -78.12)"/><path d="m467.1 133.24c.32-.47.78-1.18 1.28-2.07 2.84-4.94 3.13-8.25 4.19-10.85a16.55 16.55 0 0 1 10.23-9c6.22-1.8 16.13.42 19.24 8.93a15 15 0 0 1 -8.93 19.24 17.51 17.51 0 0 1 -4.42.9 18.77 18.77 0 0 1 -6.09-1 19.53 19.53 0 0 1 -6.3-3.56" fill="none" stroke="#e18f45" stroke-linecap="round" stroke-linejoin="round" stroke-width="3" transform="translate(-408.71 -78.12)"/></svg>