<svg viewBox="0 0 112.35 110.88" xmlns="http://www.w3.org/2000/svg"><path d="m152.07 286.47h12.34a39.94 39.94 0 0 1 0-4c.12-1.69-1.28-2.13-2.33-2.13h-7.45z" fill="#e18f45" transform="translate(-100.72 -227.76)"/><path d="m164.47 286.47h-12.35a39.94 39.94 0 0 0 0-4c-.12-1.69 1.28-2.13 2.33-2.13h7.45z" fill="#e18f45" transform="translate(-100.72 -227.76)"/><ellipse cx="57.55" cy="47.45" fill="#e18f45" rx="3.67" ry="3.76"/><path d="m143.28 281.48-6.83-1.35a.85.85 0 0 1 -.77-.91l.5-7a.85.85 0 0 1 .89-.79l6.95-.29a.85.85 0 0 1 .77.91l-.61 8.63a.85.85 0 0 1 -.9.8z" fill="#484747" transform="translate(-100.72 -227.76)"/><path d="m148.15 266.48-2.06-6.65a.85.85 0 0 1 .43-1.11l6.39-2.89a.85.85 0 0 1 1.12.41l3.56 6a.85.85 0 0 1 -.43 1.11l-7.88 3.57a.85.85 0 0 1 -1.13-.44z" fill="#484747" transform="translate(-100.72 -227.76)"/><path d="m163.35 263.85 4.77-5.07a.85.85 0 0 1 1.18-.17l5.66 4.14a.85.85 0 0 1 .2 1.18l-3.44 6a.85.85 0 0 1 -1.18.17l-7-5.1a.85.85 0 0 1 -.19-1.15z" fill="#484747" transform="translate(-100.72 -227.76)"/><path d="m173.6 276.17 6.83 1.33a.85.85 0 0 1 .77.91l-.47 7a.85.85 0 0 1 -.89.79l-6.95.31a.85.85 0 0 1 -.77-.91l.59-8.63a.85.85 0 0 1 .89-.8z" fill="#484747" transform="translate(-100.72 -227.76)"/><path d="m168.87 290.28 2.33 6.56a.85.85 0 0 1 -.39 1.13l-6.26 3.15a.85.85 0 0 1 -1.14-.36l-3.8-5.82a.85.85 0 0 1 .39-1.13l7.73-3.89a.85.85 0 0 1 1.14.36z" fill="#484747" transform="translate(-100.72 -227.76)"/><path d="m153.62 293.49-4.8 5a.85.85 0 0 1 -1.18.16l-5.64-4.11a.85.85 0 0 1 -.19-1.18l3.47-6a.85.85 0 0 1 1.18-.16l7 5.14a.85.85 0 0 1 .16 1.15z" fill="#484747" transform="translate(-100.72 -227.76)"/><circle cx="57.55" cy="51.2" fill="none" r="14.99" stroke="#484747" stroke-miterlimit="10" stroke-width="3"/><g fill="#e18f45"><path d="m188 269.11h25a80.72 80.72 0 0 1 0-8.12c.24-3.42-2.58-4.3-4.71-4.3h-15.11z" transform="translate(-100.72 -227.76)"/><path d="m213.07 269.11h-24.94a80.72 80.72 0 0 0 0-8.12c-.24-3.42 2.58-4.3 4.71-4.3h15.06z" transform="translate(-100.72 -227.76)"/><ellipse cx="99.82" cy="18.6" rx="7.42" ry="7.59"/><path d="m100.72 284h24.7a80 80 0 0 1 0-8c.24-3.39-2.56-4.26-4.67-4.26h-14.91z" transform="translate(-100.72 -227.76)"/><path d="m125.54 284h-24.7a80 80 0 0 0 0-8c-.24-3.39 2.56-4.26 4.67-4.26h14.91z" transform="translate(-100.72 -227.76)"/><ellipse cx="12.41" cy="33.7" rx="7.35" ry="7.52"/><path d="m147.78 338.64h24.7a80 80 0 0 1 0-8c.24-3.39-2.56-4.26-4.67-4.26h-14.91z" transform="translate(-100.72 -227.76)"/><path d="m172.6 338.64h-24.7a80 80 0 0 0 0-8c-.24-3.39 2.56-4.26 4.67-4.26h14.91z" transform="translate(-100.72 -227.76)"/><ellipse cx="59.48" cy="88.35" rx="7.35" ry="7.52"/></g><path d="m188.13 239.79a51.32 51.32 0 0 0 -69.8 9.72" fill="none" stroke="#484747" stroke-miterlimit="10" stroke-width="5.047552" transform="translate(-100.72 -227.76)"/><path d="m177.31 325.74a50.83 50.83 0 0 0 30.37-46.19q0-1.7-.09-3.37" fill="none" stroke="#484747" stroke-miterlimit="10" stroke-width="5" transform="translate(-100.72 -227.76)"/><path d="m108.5 292.34a50.92 50.92 0 0 0 34.89 36.37" fill="none" stroke="#484747" stroke-miterlimit="10" stroke-width="5" transform="translate(-100.72 -227.76)"/></svg>