<svg viewBox="0 0 112.81 114.21" xmlns="http://www.w3.org/2000/svg"><path d="m491.11 246.42a41.7 41.7 0 0 1 16.56 15 37.68 37.68 0 0 1 1.95 3.62" fill="none" stroke="#e18f45" stroke-miterlimit="10" stroke-width="5" transform="translate(-414.32 -226.88)"/><path d="m434.48 265.36a41.7 41.7 0 0 1 14.37-17.14 37.68 37.68 0 0 1 3.54-2.09" fill="none" stroke="#e18f45" stroke-miterlimit="10" stroke-width="5" transform="translate(-414.32 -226.88)"/><path d="m451.52 322.75a41.7 41.7 0 0 1 -16.29-15.33 37.68 37.68 0 0 1 -1.88-3.65" fill="none" stroke="#e18f45" stroke-miterlimit="10" stroke-width="5" transform="translate(-414.32 -226.88)"/><path d="m508.44 303a41.7 41.7 0 0 1 -12.81 18.33 37.68 37.68 0 0 1 -3.34 2.39" fill="none" stroke="#e18f45" stroke-miterlimit="10" stroke-width="5" transform="translate(-414.32 -226.88)"/><path d="m459.65 296.79h24.94a80.72 80.72 0 0 1 0-8.12c.24-3.42-2.58-4.3-4.71-4.3h-15.06z" fill="#e18f45" transform="translate(-414.32 -226.88)"/><path d="m484.71 296.79h-24.94a80.72 80.72 0 0 0 0-8.12c-.24-3.42 2.58-4.3 4.71-4.3h15.05z" fill="#e18f45" transform="translate(-414.32 -226.88)"/><ellipse cx="57.86" cy="47.16" fill="#e18f45" rx="7.42" ry="7.59"/><circle cx="57.8" cy="16.5" fill="none" r="14.5" stroke="#464646" stroke-miterlimit="10" stroke-width="4"/><circle cx="57.8" cy="16.5" fill="#464646" r="9.16"/><text fill="#fff" font-family="Myriad Pro" font-size="12" font-weight="700" transform="translate(54.47 20.02)">$</text><circle cx="96.31" cy="57.49" fill="none" r="14.5" stroke="#464646" stroke-miterlimit="10" stroke-width="4"/><circle cx="96.31" cy="57.49" fill="#464646" r="9.16"/><circle cx="16.5" cy="57.49" fill="none" r="14.5" stroke="#464646" stroke-miterlimit="10" stroke-width="4"/><circle cx="57.12" cy="97.71" fill="none" r="14.5" stroke="#464646" stroke-miterlimit="10" stroke-width="4"/><path d="m96.31 58.37v-7.91" fill="#4c4c4c" stroke="#fff" stroke-miterlimit="10" stroke-width="2"/><path d="m99.8 60.79-3.81-3.17" fill="none" stroke="#fff" stroke-miterlimit="10" stroke-width="2"/><path d="m12.62 55.46h3.17v6.5h-3.17z" fill="#464646"/><path d="m16.77 57.71h3.17v4.26h-3.17z" fill="#464646"/><path d="m20.99 52.18h3.17v9.78h-3.17z" fill="#464646"/><g transform="translate(-414.32 -226.88)"><path d="m478.48 324.21a.79.79 0 0 0 -.26-.6 1 1 0 0 0 -.71-.24h-3.51c.14-.72.32-1.92.32-2a.37.37 0 0 0 0-.06 6.15 6.15 0 0 0 -.66-2 .29.29 0 0 0 -.14-.13 1.47 1.47 0 0 0 -.52-.18 1 1 0 0 0 -.75.32.29.29 0 0 0 -.06.19s0 1.31 0 1.65a15.86 15.86 0 0 1 -1.83 2.94 4.11 4.11 0 0 1 -.36.27.29.29 0 0 0 -.26-.16h-4a.29.29 0 0 0 -.21.09.29.29 0 0 0 -.08.22l.42 5.32a.29.29 0 0 0 .29.27h3.61a.29.29 0 0 0 .29-.29v-.51h.18a1.09 1.09 0 0 1 .26.14 1.36 1.36 0 0 0 .72.28h4.76a1.3 1.3 0 0 0 1.36-1.19.81.81 0 0 0 -.16-.49 1.19 1.19 0 0 0 .55-1 .8.8 0 0 0 -.16-.49 1.19 1.19 0 0 0 .55-1 .81.81 0 0 0 -.16-.49 1.19 1.19 0 0 0 .52-.86z" fill="#cfcfd1" opacity=".5"/><path d="m476.78 324.78c1.14 0 1.53-1.45.39-1.45h-3.84c.14-.55.4-2.31.4-2.31a6 6 0 0 0 -.63-1.93.8.8 0 0 0 -1 .11s0 1.36 0 1.67a14.28 14.28 0 0 1 -1.93 3.15 13.08 13.08 0 0 1 -1.32.87c-1.13 2.72.26 3.82.26 3.82h.73a9.72 9.72 0 0 0 1 .42h4.76c1.14 0 1.53-1.45.39-1.45 1.14 0 1.53-1.45.39-1.45 1.15 0 1.54-1.45.4-1.45z" fill="#f3f7f9"/><path d="m476 328.43a.52.52 0 0 1 -.07-.22.32.32 0 0 1 -.32.17h-4.76a.58.58 0 0 0 -.15-.11 1.49 1.49 0 0 0 -.82-.31h-.39a2.79 2.79 0 0 1 0-2.56 11.06 11.06 0 0 0 1.21-.82c.38-.32 2.2-3 2.2-3.72 0-.06 0-.15 0-.27a2.67 2.67 0 0 1 .08.39c-.08.54-.27 1.75-.37 2.15l-.24.93h4.41v1.45a.52.52 0 0 1 -.07-.22.32.32 0 0 1 -.32.17v1.54a.51.51 0 0 1 -.07-.22.32.32 0 0 1 -.32.17v1.5z" fill="#464646"/><path d="m472.64 319a.67.67 0 0 0 -.52.21s0 1.36 0 1.67a14.28 14.28 0 0 1 -1.93 3.15 13.08 13.08 0 0 1 -1.32.87c-1.13 2.72.26 3.82.26 3.82h.73a9.72 9.72 0 0 0 1 .42h4.76c1.14 0 1.53-1.45.39-1.45 1.14 0 1.53-1.45.39-1.45 1.14 0 1.53-1.45.39-1.45 1.14 0 1.53-1.45.39-1.45h-3.84c.14-.55.4-2.31.4-2.31a6 6 0 0 0 -.63-1.93 1.2 1.2 0 0 0 -.46-.1z" fill="#464646"/><path d="m472.64 319a1.21 1.21 0 0 1 .47.1 6 6 0 0 1 .63 1.93s-.26 1.76-.4 2.31h3.84c1.14 0 .75 1.45-.39 1.45 1.14 0 .75 1.45-.39 1.45 1.14 0 .75 1.45-.39 1.45 1.14 0 .75 1.45-.39 1.45h-4.76a9.72 9.72 0 0 1 -1-.42h-.73s-1.38-1.1-.26-3.82a13.08 13.08 0 0 0 1.32-.87 14.28 14.28 0 0 0 1.93-3.15c0-.31 0-1.67 0-1.67a.67.67 0 0 1 .52-.21m0-.52a1.2 1.2 0 0 0 -.93.41.54.54 0 0 0 -.11.33s0 1.23 0 1.61a16.81 16.81 0 0 1 -1.75 2.81 12.18 12.18 0 0 1 -1.25.82.52.52 0 0 0 -.22.25c-1.26 3 .35 4.37.41 4.43a.52.52 0 0 0 .32.11h.69l.17.1a1.56 1.56 0 0 0 .84.31h4.76a1.53 1.53 0 0 0 1.59-1.42 1.06 1.06 0 0 0 -.09-.44 1.39 1.39 0 0 0 .48-1 1.06 1.06 0 0 0 -.09-.44 1.39 1.39 0 0 0 .48-1 1 1 0 0 0 -.09-.44 1.39 1.39 0 0 0 .48-1 1 1 0 0 0 -.34-.77 1.26 1.26 0 0 0 -.86-.29h-3.13c.13-.72.27-1.67.28-1.72a.54.54 0 0 0 0-.11 6.41 6.41 0 0 0 -.69-2.14.53.53 0 0 0 -.26-.24 1.77 1.77 0 0 0 -.67-.14z" fill="#464646"/><path d="m469 324.84v3.71a1.22 1.22 0 0 0 .16.17h.73v-4.44c-.33.21-.72.45-.89.56z" fill="#6f7786" opacity=".1"/><path d="m469 324.2v5.32h-3.19l-.42-5.32zm0-.52h-3.61a.52.52 0 0 0 -.52.56l.42 5.32a.52.52 0 0 0 .52.48h3.19a.52.52 0 0 0 .52-.52v-5.32a.52.52 0 0 0 -.52-.52z" fill="#464646"/></g><path d="m51.49 102.63h3.19v-5.31h-3.61z" fill="#464646"/><g fill="#fff" opacity=".1"><path d="m51.07 97.32h3.61v.68h-3.61z"/><path d="m468.68 324.51v4.7h-2.58l-.37-4.7h3m.31-.31h-3.61l.42 5.32h3.15v-5.32z" transform="translate(-414.32 -226.88)"/></g><circle cx="53.74" cy="101.76" fill="#fff" r=".39"/></svg>