<svg id="Layer_1" data-name="Layer 1" xmlns="http://www.w3.org/2000/svg" viewBox="0 0 224.09 211.61">
	<defs>
		<style>
			.cls-1{fill:rgb( 85, 85, 85);}
			.cls-2{fill:rgb(255,255,255);}
			.cls-3{fill:rgb(255,255,255);}
		</style>
	</defs>
	<title>benefit-5</title>
	<circle class="cls-1" cx="114.88" cy="106.5" r="93.5"/>
	<path class="cls-2" d="M99,111.88c10.28,1.15,15.89,11,11.92,20.67-.88,2.15-2.5,1.83-4.07,1.84q-13.86.06-27.74,0c-1.34,0-2.72.22-3.56-1.47-4.47-9,1.63-19.92,12.34-21-2.56-3.53-5.93-6.58-4.8-11.3a9.74,9.74,0,0,1,3.57-6c4.61-3.31,9.35-3.32,13.66.41C104.85,99,104.31,104.35,99,111.88Z"/>
	<path class="cls-2" d="M143.35,111.88c10.28,1.15,15.9,11,11.92,20.67-.88,2.15-2.5,1.83-4.07,1.84q-13.86.06-27.74,0c-1.34,0-2.72.22-3.56-1.47-4.47-9,1.63-19.92,12.34-21-2.56-3.53-5.93-6.58-4.8-11.3a9.74,9.74,0,0,1,3.57-6c4.62-3.31,9.35-3.32,13.66.41C149.21,99,148.66,104.35,143.35,111.88Z"/>
	<path class="cls-3" d="M117,81c1.48.15,2,.22,2.43.25,10.51.68,10.54.69,13.62-9.91.65-2.22,1.5-4.3,4.21-3.8,2.46.46,3.18,2.47,3.23,4.88.2,8.7-4.29,15.53-12.73,18.47a9.32,9.32,0,0,0-5,3.68c-5,7.36-11.31,7.36-16.28.11a35.89,35.89,0,0,0-3.87-4.14c-1.55-1.65-5.82-1.22-4.28-5.22,1.16-3,3.62-4.26,6.84-4.06.94,0,1.89,0,3.63,0-4.45-5.23-7.43-10.41-1.15-15.46a7.85,7.85,0,0,1,11.06.53C123.77,71.32,121.45,76.21,117,81Z"/>
	<path class="cls-3" d="M115.09,148.86c-12.61,0-25.22,0-37.82,0-2.89,0-5-.1-5-4,0-3.76,1.27-4.84,5-4.82q37.83.21,75.66,0c3.41,0,4.48,1,4.5,4.45s-1.17,4.45-4.52,4.41C140.31,148.76,127.7,148.86,115.09,148.86Z"/>
	<script xmlns="http://www.w3.org/2000/svg" type="text/javascript">

		var params = {};
        location.search.replace(/[?&amp;]+([^=&amp;]+)=([^&amp;]*)/gi,function(s,k,v){params[k]=v});
        
        var color1 = params['cls1'];
        if( !color1 || color1 == '' ) color1 = 'rgb( 85, 85, 85)';
        var color2 = params['cls2'];
        if( !color2 || color2 == '' ) color2 = 'rgb(255,255,255)';
        
		var cls1 = document.getElementsByClassName("cls-1");
		var i = 0;
		while(typeof cls1[i] !== 'undefined') {
			cls1[i].style.fill = color1;
			i++;
		}

		var cls2 = document.getElementsByClassName("cls-2");
		var i = 0;
		while(typeof cls2[i] !== 'undefined') {
			cls2[i].style.fill = color2;
			i++;
		}

		var cls3 = document.getElementsByClassName("cls-3");
		var i = 0;
		while(typeof cls3[i] !== 'undefined') {
			cls3[i].style.fill = color2;
			i++;
		}
		
	</script>
</svg>