<svg enable-background="new 0 0 500 500" viewBox="0 0 500 500" xmlns="http://www.w3.org/2000/svg"><g fill="#1c1c1c"><path d="m250 22.1c-125.9 0-227.9 102-227.9 227.9s102 227.9 227.9 227.9 227.9-102 227.9-227.9-102-227.9-227.9-227.9zm8.4 435.5v-40h-16.8v40c-107.5-4.4-193.8-90-199.1-197.4h38.5v-16.9h-38.7c3.5-108.9 90.4-196.6 199.3-201v37.3h16.9v-37.2c108.8 4.4 195.8 92.2 199.3 201h-38.8v16.8h38.6c-5.3 107.4-91.7 193.1-199.2 197.4z"/><path d="m156.8 193.4 97.8 56.2c6 3.4 8 11 4.6 17-3.4 6-11 8-17 4.6l-97.8-56.2c-6-3.4-8-11-4.6-17 3.5-6 11.1-8 17-4.6z"/><path d="m240.8 250.4 126.4-92.3c5.5-4 13.3-2.8 17.3 2.7 4 5.5 2.8 13.3-2.7 17.3l-126.4 92.3c-5.5 4-13.3 2.8-17.3-2.7-4.1-5.5-2.9-13.2 2.7-17.3z"/></g></svg>