<svg enable-background="new 0 0 500 500" viewBox="0 0 500 500" xmlns="http://www.w3.org/2000/svg"><path d="m248.1 20.1c-126.9 2.4-230.2 102.3-227.7 233.2 2.5 129.7 100.2 228.3 234 226.6 129.3-1.6 226.1-106.2 225.3-234.2-.8-123.9-108.2-227.5-231.6-225.6zm92.8 178.1c5.2 4.1 8.9 9.7 10.7 16.1 4 16.4 12 26.5 30 28.3 5 .5 13.3 6.9 13.5 10.8.5 13.5 8 17.9 19.1 20.1 2.1.4 3.9 1.9 7.1 3.4-1.1 1-2.1 1.9-3.1 2.7-.3.3-.6.5-.9.8-1.9 1.6-3.5 3-4.9 4.7-11.6 14.6-23.4 29-34.1 44.2-1.9 2.6-.8 10.3 1.6 12.5 7.6 6.6 6.7 13.7 6.3 22.5-.8 17.1 11.7 25.2 26.2 30.4-24.6 34.6-75.8 66.4-136.1 74.1-42.8 5.5-90.3-1.3-136.1-27.9-61.5-36-94.5-90.9-105.5-146.6-7.8-39.2-4.7-78.8 6.8-112.4 3.4-10 7.6-19.5 12.5-28.3 6.4 28 27.3 41.4 46.9 56.2 12 9 15.4 22.5 14.8 36.3-.7 16.6 6 28.1 19.8 35.8 15.2 8.5 21.5 22 25.7 38.2 6.6 25.5 11.3 50.9 9.5 77.4-.9 12.6 5.6 21.7 17.4 26 10.1 3.7 18.8-.1 21.5-8.1.9-2.7 1.1-5.8.4-9.3-1.7-9.5-1.7-17.6.8-24.7 2.8-8.1 8.7-15.1 18.7-21.3 3.4-2.1 6.4-5.5 8.9-9.4 4.2-6.6 7.2-14.8 9.1-22 .1-.3.2-.6.2-.8 3.3-12.1 8.3-20.2 20.4-25 9.9-3.9 17.7-12 22.4-21.5 5.2-10.8 6.4-23.4 2-33.9-8.9-21.5-34.7-33-56.7-25.2-2.8 1-5.7 1.9-8.7 2.9-3.5 1.1-7.3 2.4-11.7 3.8-1.4-8.7-2.2-15.1-3.6-21.4-1.6-7.4-4.3-12.7-8.3-16.2-.3-.3-.7-.6-1-.8-.9-.7-2-1.3-3-1.9-1.7-.9-3.6-1.5-5.7-2-.2 0-.3-.1-.5-.1-2.7-.5-5.8-.8-9.2-.7-7 .2-14 .6-20.9.4-.2 0-.3 0-.5 0-2-.1-4-.2-6-.4-.2 0-.4 0-.6-.1-4.6-.5-8.8-1.6-12.7-3.3-.7-.3-1.5-.7-2.2-1-.9-.5-1.8-1-2.7-1.6-1.8-1.2-3.6-2.5-5.2-4-4.8-4.5-8.8-10.6-11.9-18.5 8.9 0 15.9-.6 22.9.1 27 2.6 29.6 1.1 35.9-26.4.9.3 1.8.6 2.7.8 3.8 1.2 7.5 2.4 11.3 3.4h.2c.7.2 1.5.4 2.2.5.2 0 .3 0 .5.1 7.6 1.3 14.2-.2 20.2-3.8.3-.2.5-.3.8-.5s.7-.4 1-.7c2.4-1.6 4.6-3.5 6.8-5.7 8.7-8.8 9.1-19.2 4.5-29.9-2.8-6.4-8.5-11.8-10-18.3-3-12.7-5.7-26-5-38.9.2-3.6 13.1-6.4 17.6-8.4h.1c5.3 15.6 7 28.9 13.8 38.8 4.7 6.8 10 10.1 15.7 10.2 5.6.1 11.6-2.9 17.6-8.6 6.4-6.1 13.6-12.1 17.8-19.7 5-8.8 10.6-11.9 17.6-10.7 2.7.4 5.7 1.5 8.8 3.2 3.6 1.9 7.6 3.3 11.5 5-12.5 16-25 31.2-36.4 47.2-2.9 4.1-4.2 12.2-2 16s9.6 5.6 15 6.9c5.1 1.3 10.5.9 15.8 1.2 6.7.4 13.4.8 20 .9 16.8.1 33-2.5 46.8-16.1 3.3-3.3 6.7-5.4 10.1-5.3 3 0 5.9 1.6 8.9 5.5l25.7 34 .1.1-1.9 3.6c-14.6-.7-29.3-.9-43.8-2.1-18.5-1.6-35.3 3.2-51 12.3-13 7.4-17.4 20.2-13.3 31.7 2 5.2 5.6 10.2 11 14.4z" fill="#1c1c1c"/></svg>