<svg enable-background="new 0 0 500 500" viewBox="0 0 500 500" xmlns="http://www.w3.org/2000/svg"><g stroke="#231f20" stroke-miterlimit="10"><path d="m424.2 15s-64.9 56.7-154.8 154.8-247.8 289.3-247.8 289.3l105.7-100.7s58.4 12.9 115.4.6l-27.1-32.2 81.3 10.2s5.5-3.8 8.1-5.8c60.1-45.6 89.1-126.1 89.1-126.1l-60.8-28.8 75.6-9.6c-.1.1 33.7-97.2 15.3-151.7z" fill="#1c1c1c"/><path d="m23.5 457.5s24 28.8 70 27.5c40.2-1.2 69.7-37.6 157.9-36.3s94.4 29.8 141.5 29.8c33.7 0 86.5-21 86.5-21" fill="none" stroke-width="4"/></g></svg>