<?xml version="1.0" encoding="utf-8"?>
<!-- Generator: Adobe Illustrator 23.0.4, SVG Export Plug-In . SVG Version: 6.00 Build 0)  -->
<svg version="1.1" xmlns="http://www.w3.org/2000/svg" xmlns:xlink="http://www.w3.org/1999/xlink" x="0px" y="0px"
	 viewBox="0 0 860.9 700.7" style="enable-background:new 0 0 860.9 700.7;" xml:space="preserve">
<style type="text/css">
	.st0{fill:#8F4821;}
	.st1{fill:#C47138;}
	.st2{fill:#E28240;}
	.st3{fill:none;stroke:#444028;stroke-width:2;stroke-linecap:round;stroke-linejoin:round;stroke-miterlimit:10;}
	.st4{fill:#FFFFFF;}
	.st5{fill:#ECE9D2;}
	.st6{fill:#75746D;}
	.st7{fill:#99978D;}
	.st8{fill:#0A1F37;}
	.st9{fill:#E98C3B;}
</style>
<g id="Layer_4">
	<path class="st0" d="M567.9,532.4c-0.1-0.8-0.2-1.7-0.3-2.6c-0.4-2.8-1.1-5.6-1.8-8.3c0.1-0.9,0-1.8,0-2.7c0.1-2.1,0.3-4.3,0.5-6.4
		c0.4-4.9,0.4-9.8,0.1-14.6c-1.4-4.9-2-9.8-2.1-15c-0.3-1.6-0.7-3.3-1.1-4.9c0-0.1-0.1-0.2-0.1-0.3c-0.5-1.5-0.9-3.1-1.3-4.7
		c-1.4-4.8-3.1-9.6-4.8-14.3c-1.6-4.2-3-8.5-4.7-12.8c-0.8-0.9-1.2-2-1.3-3c-0.9-1.6-1.8-3.3-2.8-4.8c-1.8-2.6-3-5.7-5.3-8
		c-2-2-4.2-3.5-6.1-5.6c-0.5-0.6-0.8-1.1-1.1-1.7c-5.7-3.9-12-5.7-18-8.9c-1.2-0.6-2.3-1.3-3.4-2.1c-2.2-0.7-4.4-1.5-6-3.4
		c-0.3-0.4-0.6-0.8-0.8-1.2c-0.1-0.1-0.1-0.1-0.2-0.2c-1.4-1.9-3.1-3.6-4.6-5.4c-0.6-0.7-1.1-1.5-1.3-2.3c-0.4-0.5-0.8-1-1.1-1.6
		c-0.2-0.3-0.4-0.6-0.5-0.9c-6.6-8.3-17.3-9.4-25.8-4.7c-1.3-0.3-2.7-0.5-4-0.8c-5.2-1-10.3-2-15.5-3c-10.3-2-20.6-4-31-6
		c-6.9-1.3-14,0.1-19.1,4.5c-2.6-1.2-5.5-2-8.7-2.1c-8.8-0.3-18-0.3-26.8,1.1c0.5-0.6,0.2-1.7-0.7-1.7c-0.5,0-0.8,0.3-0.9,0.7
		c-0.3-0.2-0.8-0.3-1.2,0.2c-0.8,1-1.4,1.6-2.8,1.6c-0.8,0-1.4,0.2-1.9,0.8c-1.6,0.4-3.2,0.9-4.8,1.4c-0.5-0.2-1-0.2-1.6,0
		c-2.8,0.7-5.7,1.5-8,3.2c-0.1,0.1-0.3,0.2-0.4,0.3c-1,0.1-1.9,0.5-2.6,1c-1.3,0.9-2.2,2.2-2.9,3.7c-0.1,0.1-0.1,0.2-0.1,0.3
		c-1.6,1.2-3.2,2.5-4.7,3.8c-0.1,0.1-0.1,0.2-0.2,0.3c-0.7,1-1.5,2-2.2,3.1c-0.4,0.6-0.9,1.1-1.4,1.5c-0.4,1.1-1.3,2-2.4,2.6
		c-1.6,2.4-3.4,4.6-5.4,6.8c-1,1.1-2.1,1.7-3.3,1.8c-8.8,3-15.5,10.1-18.7,19c-0.1,0.4-0.2,0.8-0.3,1.2c-0.6,0.8-1.1,1.7-1.6,2.5
		c-0.7,4.1-1.2,8.3-2.4,12.3c0,0,0,0.1,0,0.1c0.1,0.2,0.1,0.4,0.2,0.6c-0.5,0.8-1,1.7-1.5,2.5c0.2,0.9,0.2,1.9-0.2,3.1
		c-2.1,6.3-3.4,12.5-7.8,17.8c-2.7,3.4-5.7,6.9-9,10c-6.3,15.5-6.4,32-0.3,48.2c2,5.2,4.3,10.4,6.8,15.5c0,0,0,0.1,0.1,0.1
		c1.5,0.9,2.6,2.5,2.7,4.7c0.2,5.4-2.5,10.5-2.2,15.9c0.3,4.9-1,10.4,0.6,15.1c0.4,1.2,0.4,2.2,0.2,3.1c1.9,3.9,5.1,7.1,8.9,9.2
		c0.3,0.5,0.7,1,1,1.5c0.7,0.2,1.4,0.5,2.1,1c1.5,1.2,3,2.4,4.5,3.6c0-0.1-0.1-0.2-0.1-0.4c0,0.1,0.1,0.3,0.2,0.5
		c2.1,1.8,4.1,3.6,6,5.6c3.3,3.5,5.7,7.5,8.8,11.1c3.7,4.5,8.6,8.2,11.4,13.2c3.3,2.3,6.7,4.3,10.3,6.1c0.7-0.3,1.4-0.5,2.3-0.5
		c8.2-0.1,16.6,2.7,24.7,4.1c3.4,0.6,6.4,1.8,9.1,4c1.1,0.9,2.3,1.7,3.5,2.5c2,0.7,4.1,1.4,6,2.3c0.4,0.2,0.8,0.5,1.1,0.8
		c2.3,0.4,4.5,0.8,6.8,1.2c0.2,0.8,0.7,1.5,1.7,1.9c10.8,5.1,22.3,6.6,34,4.3c0.3-0.1,0.5-0.1,0.8-0.2c2.2,0.1,4.4,0.2,6.5,0
		c0.2-0.1,0.3-0.2,0.5-0.2c6.1-2.3,11.6-5.1,17.9-7c3.5-1,6.8-2.6,10.2-4c3.6-2.1,7.1-4.1,10.7-6.1c6.5-3.6,13.1-7,19.9-10
		c0.4-0.1,2.2-0.9,3-1.2c1.7-0.6,3.4-1.3,5.2-1.9c1.7-0.6,3.4-1.3,5.1-1.9c6.1-7.4,15.5-11.1,24.4-14.3c0.4-0.4,0.7-0.8,1-1.1
		c0.4,0.2,0.9,0.3,1.4-0.1c3.2-2.4,7.4-5.8,7.5-10c0-0.9-0.7-1.4-1.4-1.4c0.5-0.9,0.9-1.9,1.3-2.8c-0.4-0.6-0.7-1.3-0.8-2
		c-0.9-3.6,0.6-7.4,1.9-10.7c1.6-3.9,2.4-5.8,4.3-10.5c1.5-3.6,3-7,5-10.2c1.4-4.6,3-9,6.2-12.9c0.1-0.1,0.2-0.2,0.3-0.3
		c0.1-0.3,0.2-0.5,0.3-0.8c1.3-3,3.2-5.8,4.4-8.9c0.4-1,0.7-2.1,1-3.1c0.3-1.6,0.4-3.2,0.5-4.9C568,534.1,568,533.2,567.9,532.4z
		 M341.6,500.6c-0.3,0-0.6,0.1-0.9,0.1c0.2-0.4,0.5-0.9,0.7-1.3c0.1,0.1,0.2,0.2,0.3,0.3C341.7,500,341.7,500.3,341.6,500.6z"/>
	<path class="st1" d="M568,523.7c0.3-2.1,0.8-4.8,1.1-7.5c0-0.2,0-0.3,0-0.5c0.1-2.9-0.9-5.7-0.8-8.6c0-0.5,0-1,0.1-1.4c0,0,0,0,0,0
		c-0.7-1.3-0.8-2.6-0.6-3.8c0,0,0-0.1-0.1-0.1c-2.6-6.4-3.4-13-3.4-19.9c0-0.2,0-0.4,0-0.6c-0.4-1.2-0.8-2.3-1.2-3.5
		c-1.7-5.6-2.7-11.3-4.4-16.9c-1.6-5-2.8-10.6-6.3-14.7c-0.8-1-1.3-2.1-1.4-3.1c-0.9-1.6-1.7-3.3-2.8-4.8c-1.8-2.6-3-5.7-5.3-8
		c-2-2-4.2-3.5-6.1-5.6c-0.5-0.6-0.8-1.1-1.1-1.7c-5.7-3.9-12-5.7-18-8.9c-1.2-0.6-2.3-1.3-3.4-2.1c-2.2-0.7-4.4-1.5-6-3.4
		c-0.3-0.4-0.6-0.8-0.8-1.2c-0.1-0.1-0.1-0.1-0.2-0.2c-1.4-1.9-3.1-3.6-4.6-5.4c-0.6-0.7-1.1-1.5-1.3-2.3c-0.4-0.5-0.8-1-1.1-1.6
		c-0.4-0.5-0.6-1.1-0.8-1.6c-1.8-1.2-3.7-2.2-5.6-3.1c-9.9-4.7-20.1-6.1-31-6.6c-2.1-0.1-4.2-0.2-6.3-0.3c-0.9-0.1-1.8-0.1-2.7-0.2
		c-0.2,0-1.5-0.2-2.1-0.3c-0.3,0-0.5-0.1-0.5-0.1c-1.2-0.2-2.4-0.4-3.6-0.7c-2.1-0.4-4.2-0.9-6.2-1.5c-8.6-2.2-16.9-5.2-25.2-8.2
		c-10.1-3.6-22.9,4.1-25.2,14.3c-1.9,8.4,0.8,15.8,6.6,20.8c-1.6,3.2-3.2,6.6-4.6,9.9c-8.7,2.3-17.1,10-16,19.8
		c0.2,1.7,0.2,3.3,0.3,5c0,0.3,0,0.5,0.1,0.7c0,0.1-0.1,0.2-0.1,0.4c-0.7,3.3-1.7,6.5-2.7,9.7c-2.2,6.5-4.6,12.8-5.8,19.6
		c-1,5.5-0.2,11.3,2.4,16.1c0.1,10.4,2,20.7,3.5,31.1c2.1,13.9,3.4,28.7,7.8,42.2c5.2,16.1,15.4,27,28.6,36.9
		c12.8,9.7,25.5,17.2,41.8,18.8c14.7,1.4,29.8-2.4,44.2-4.8c7-1.2,13.9-2.3,20.9-3.5c8-1.3,16.2-3.4,22-9.6c1.6-1.7,3-3.6,4.1-5.7
		c0,0,0,0,0,0c-0.9-3.6,0.6-7.4,1.9-10.7c1.6-3.9,2.4-5.8,4.3-10.5c1.5-3.6,3-7,5-10.2c1.4-4.6,3-9,6.2-12.9
		c0.1-0.1,0.2-0.2,0.3-0.3c0.1-0.3,0.2-0.5,0.3-0.8c1.3-3,3.2-5.8,4.4-8.9c1-2.6,1.5-5.3,2.1-8C567.3,531.5,567.6,527.5,568,523.7z"
		/>
	<path class="st0" d="M481.5,411.7c-5.8-2.1-12.6-2.6-18.7-3.6c-27.1-4.1-54.5-5.4-81.6-0.5c-10.7,1.9-33.2,5.2-28.8,21.4
		c1.9,7.1,9.7,10,15.8,12.4c1,0.4,2,0.7,3.1,1.1c-9.7,6.9-18.1,15.7-24.4,26c-4.7,7.6,2.1,14.7,8.9,14.8c-0.8,7.3-0.4,14.6,0.9,21.8
		c1.5,8.5,14.1,5.4,13.6-2.7c0.3-0.8,0.4-1.7,0.3-2.7c-0.5-5.8,0.6-11.2,2.7-16.6c1.6-4.1,3.8-10.7,7.1-13.6c3.5-3,10.2-4.7,14.6-6
		c4.9-1.4,10.1-2,14.9,0c4.9,2.1,8.9,5.9,12.8,9.7c2.4,1.3,4.6,3.2,6.7,5.3c2.6,2.5,5,4.4,8.6,4.8c1.4,0.2,2.7,0.3,4.1,0.3
		c-0.4-0.4-0.9-0.8-1.3-1.3c-0.4-0.5-0.7-0.9-0.9-1.4c-1.7-2-2.7-4.6-2.9-7.4c-1.8-3.6-2.5-7.6-2-11.7c0.1-0.9,0.4-1.8,0.8-2.6
		c0-1.4,0.5-2.8,1.7-4c1.1-1.1,2.4-2.1,3.7-3c0.7-0.7,1.5-1.3,2.2-1.9c1.2-1,2.5-1.5,3.8-1.6c1.3-0.7,2.6-1.3,3.8-1.9
		c6-3,10.8-5.6,17.3-2.1c1.4,0.7,2.2,1.7,2.6,2.8c2-1.1,3.1-3.3,3.2-5.5c1.9-0.4,3.7-0.9,5.6-1.4c3.8-1,6.5-4.3,7.2-8.1
		c0.5-0.6,0.9-1.2,1.3-2C492.4,423.1,489,414.5,481.5,411.7z"/>
	<path class="st0" d="M409.2,533.3c-0.3-4.1-1.8-7.9-4.1-11.2c0.7-5.1-7.4-7.1-8.8-1.8c-0.1,0.4-0.2,0.9-0.3,1.3
		c-0.1,0.2-0.1,0.4-0.2,0.6c-0.5,2.1-1.1,4.2-1.7,6.2c-0.7,2.3-2.8,4-2.9,6.5c-0.2,5.3,5.5,7.2,9.9,6.5
		C405.7,540.8,409.6,538.5,409.2,533.3z"/>
	<path class="st0" d="M384.9,537.1c0-0.1-0.1-0.1-0.1-0.2c-0.5-0.9-0.8-1.9-0.8-3c0-0.1,0-0.2,0-0.3c0-0.3-0.1-0.6-0.1-0.9
		c-1.1-1.5-1.5-3.4-1.1-5.2c0.2-0.6,0.3-1.1,0.6-1.7c-0.7-3.1,0.8-6.7,4.4-7.3c0.2-0.3,0.4-0.5,0.6-0.8c0.9-1.2,1.9-2,3.1-2.5
		c0.5-0.5,0.9-0.9,1.4-1.4c-1.4-2.1-4.6-3.2-7.1-1.1c-5.4,4.5-8.2,11.5-8.5,18.5c-0.1,3.4,1.4,6.1,2.9,9.1l6.2,12.1
		c1.6,3.1,5,2.7,6.9,0.8c-3.6-4.3-6.7-8.8-8.3-14.2C385,538.2,384.9,537.6,384.9,537.1z"/>
	<path class="st0" d="M492.8,528.4c-0.9-1.3-1-2.9-0.6-4.3c-0.7-1.6-1.5-3.1-2.4-4.6c-2.8,0.2-5.6,2.6-4.7,6.2
		c2.6,10.7-4.4,17.6-7.9,27c-3,8.1-4.2,19.1,1.3,26.4c3.1,4.2,9.6,1.5,9.6-2.4c-2.3-0.1-4.6-0.6-6.6-1.5c-2.5-1.2-4.2-3.3-4.5-6.1
		c-0.3-2.6,0.7-4.8,1.9-7c0.7-3.9,3-7.7,5.3-11c1.9-2.7,3.9-5.1,5.2-8.2c0.8-2,2.2-4,3.2-6.1c-0.5-1.2-0.6-2.6-0.4-3.9
		c0.2-1.1,0.5-2.3,0.8-3.4c0,0.2,0-0.3,0.1-0.7C493,528.7,492.9,528.6,492.8,528.4z"/>
	<path class="st0" d="M507.6,481.9c1.1,7.8,5.3,17.1,11.7,21.9c2.9,2.1,7,4.2,10.6,4.6c3.3,0.3,6.7-1.1,10-2.3c-0.6-1.5-2-2.7-4-2
		c-6.9,2.3-16.7-2.9-20-9.2c-3.6-6.9-1.9-15.6,2.9-21.4c2.9-3.4-2.1-8.4-4.9-4.9C510.8,472.3,508.5,476.9,507.6,481.9
		C507.6,481.8,507.6,481.8,507.6,481.9z"/>
	<path class="st0" d="M544.8,490.2c-0.2-0.2-0.5-0.4-0.8-0.5c-0.2-0.2-0.4-0.4-0.7-0.6c-0.2-0.2-0.4-0.3-0.5-0.5
		c-0.3-0.2-0.6-0.4-0.9-0.6c-0.2-0.1-0.5-0.3-0.7-0.4c-0.1,0-0.4-0.2-0.6-0.2c-1.2-0.3-2.1-1.1-2.7-2c-0.9-0.1-1.8-0.2-2.6-0.4
		c-3-0.5-6.9-2-10-1.2c-1.6,0.4-2.7,1.3-3.4,2.4c-2,0.5-2.3,3.4-0.7,4.5c0.1,0.3,0.2,0.6,0.3,0.9c1.7,0.6,2.8,2.2,3.1,4.1
		c0,0,0,0.1,0.1,0.1c0-0.3,0.2,0.2,0.1,0.2c0.1,0.2,0.3,0.5,0.4,0.7c0.1,0.1,0.4,0.5,0.4,0.5c0.1,0.2,0.3,0.3,0.4,0.5
		c0.4,0.5,0.8,1,1.2,1.5c0.3,0.4,0.7,0.7,1.3,0.8l2.3,0.5c0.7,0.1,1.4,0,2-0.3c0.4,0.1,0.7,0.3,1.1,0.4c2-1.5,4-2.8,6-4.3
		c0.5,0.1,1,0.2,1.4,0c1.4-0.6,2.6-1.3,3.6-2.4C545.7,492.7,545.8,491.1,544.8,490.2z"/>
	<path class="st2" d="M568,523.7c0.3-2.1,0.8-4.8,1.1-7.5c0-0.2,0-0.3,0-0.5c0.1-2.9-0.9-5.7-0.8-8.6c0-0.5,0-1,0.1-1.4c0,0,0,0,0,0
		c-0.7-1.3-0.8-2.6-0.6-3.8c0,0,0-0.1-0.1-0.1c-2.6-6.4-3.4-13-3.4-19.9c0-0.2,0-0.4,0-0.6c-0.4-1.2-0.8-2.3-1.2-3.5
		c-1.7-5.6-2.7-11.3-4.4-16.9c-1.6-5-2.8-10.6-6.3-14.7c-0.8-1-1.3-2.1-1.4-3.1c-0.9-1.6-1.8-3.3-2.8-4.8c-0.8-1.2-1.5-2.5-2.2-3.7
		c-2.9-3.6-6.2-6.8-10-9.6c-3.5-2.6-7.1-5-10.7-7.4c-2.5-1.1-5-2.1-7.5-3.4c-1.2-0.6-2.3-1.3-3.4-2.1c-2.2-0.7-4.4-1.5-6-3.4
		c-0.3-0.4-0.6-0.8-0.8-1.2c-0.1-0.1-0.1-0.1-0.2-0.2c-1.4-1.9-3.1-3.6-4.6-5.4c-0.6-0.7-1.1-1.5-1.3-2.3c-0.4-0.5-0.8-1-1.1-1.6
		c-0.2-0.2-0.3-0.5-0.4-0.7c-1.9-1.8-3.8-3.6-5.7-5.5c-3.2-3.2-7.3-2.3-9.8,0.2c-0.5,2.3-1.1,4.6-1.9,6.9c0.1,0.3,0.2,0.6,0.4,0.9
		c11.5,1.5,18.3,10.7,23.1,21c2.5,5.5,4.9,10.9,9.1,15.4c1.8,1.9,3.7,3.7,5.7,5.5c4.7,2.3,9.1,5.3,13.1,9.3c5,5,9.4,11.7,12.4,18.1
		c3.3,7.1,3.4,13.8,0.5,20.8c0.3,0.6,0.6,1.3,0.8,2c16,6.6,17.4,28.2,14.8,43c-1.7,10.1-5.9,19.8-10.5,28.8
		c-2.1,4.1-3.9,8.3-5.7,12.6c-0.6,1.5-1.5,3-1.9,4.5c1.2,0.6,2.3,0.9,3.4,1c0.7-1.7,1.4-3.4,2.5-5.9c1.5-3.6,3-7,5-10.2
		c1.4-4.6,3-9,6.2-12.9c0.1-0.1,0.2-0.2,0.3-0.3c0.1-0.3,0.2-0.5,0.3-0.8c1.3-3,3.2-5.8,4.4-8.9c1-2.6,1.5-5.3,2.1-8
		C567.3,531.5,567.6,527.5,568,523.7z"/>
	<path class="st2" d="M403.5,509.2c-2.1,4.4-7,5.7-10.3,9c-3,2.9-4.2,7-5,11c-0.9,4.4-0.7,7.8,2.1,11.5c2.1,2.8,5.1,6,8.7,6.8
		c2.5,0.6,3.6-3.3,1.1-3.9c-3.3-0.7-7.4-5.4-8.2-8.6c-0.9-3.7,1.3-10.5,3.6-13.2c3.5-4.2,9.2-5.4,11.7-10.7
		C408.1,508.9,404.6,506.8,403.5,509.2z"/>
	<path class="st2" d="M474.7,449.4c-4.1-3.5-9.2-3.6-14.1-1.7c-3.5,1.4-6.8,3.6-10.1,5.5c-2.3,1.3-5.1,2.6-6.8,4.7
		c-7.1,9.1,6.3,23.9,14.9,26.2c2.5,0.7,3.5-3.2,1.1-3.9c-6.6-1.8-18.9-14.9-11.3-21.2c2.8-2.3,6.9-4.1,10-5.8
		c4.1-2.3,9.3-4.6,13.4-1C473.8,453.9,476.6,451.1,474.7,449.4z"/>
	<path class="st2" d="M502.8,537.1c-4.2,6.9-12,10.7-16.6,17.3c-4.7,6.7-3.8,13-1.6,20.5c1.3,4.3,8.1,2.5,6.7-1.9
		c-1-3.1-2.4-6.5-1.7-9.7c0.7-3.7,3.6-6.8,6.3-9.3c4.6-4.3,9.6-7.9,13-13.3C511.2,536.8,505.1,533.2,502.8,537.1z"/>
	<path class="st1" d="M355.2,489.3c0.2-1.2,0.4-2.2,1.2-3.1c0.2-1.5,0.5-3,0.9-4.7c0.2-1,0.4-2,0.5-2.9c-1-3.3-0.2-6.7-0.5-10.2
		c-1.4-2.8-3.3-5.5-5.4-7.8c-2.6-2.8-6.9,1.4-4.2,4.2c3.5,3.8,6.8,9.5,6.4,14.9c-0.3,4.5-4.3,10.1-7.3,13.3
		c-6.8,7.6-20.7,9.5-30.3,10.6c-3.8,0.4-3.8,6.4,0,6c12.9-1.5,28.8-4.1,36.9-15.4c0.5-0.7,1-1.4,1.5-2.1
		C355,491.3,355.1,490.3,355.2,489.3z"/>
	<path class="st1" d="M434.1,422.2c-1.5,2.4-2.9,4.7-5.2,6.5c-3.3,2.6-7.4,4.4-11.2,5.9c-4.4,1.8-9,2.7-13.7,3c0,1.5,1,3,2.9,3.2
		c12.3,1.1,22.9-3.7,29-14.4C437.1,424.6,435.8,422.7,434.1,422.2z"/>
	<path class="st0" d="M467.8,456c-0.1-0.4-0.3-0.8-0.5-1.1c-0.3,0.1-0.5,0.2-0.8,0.2c0.1-0.7,0-1.4-0.4-2c0-1.8-1.8-3.6-3.6-2.2
		c-3.9,3-9.4,3.2-11,8.6c0,0,0,0.1,0,0.1c-0.3,0.2-0.7,0.4-1,0.6c0,0.2,0.1,0.4,0.1,0.5c-1.4,1.2-3,2.6-4,4.2c0,1.6,0.4,3,1.4,4.2
		c1.1,1.3,1.7,2.9,1.7,4.4c0,0,0.1,0,0.1,0c0.4,0.1,0.8,0.2,1.2,0.4c0.8,0.2,1.6,0.5,2.3,0.8c0.3,0.9,1.1,1.6,2.3,1.6
		c0.2,0,0.3,0,0.4,0c0.2,0.2,0.4,0.4,0.6,0.6c0.4-0.3,0.8-0.7,1.2-1c0.8-0.7,1.7-1.2,2.6-1.3c0.5-0.4,1.1-0.8,1.7-1.1
		C465.7,468.4,469.5,461.5,467.8,456z"/>
	<path class="st0" d="M516.8,553.1c-0.1-3-2-5.6-4.7-6.8c-3.1-1.4-6.2-0.6-9.2,0.7c-0.7,0.3-1.1,0.8-1.2,1.3c-2,0.4-3.9,1.5-5.4,2.9
		c-1.6,1.6-2.7,2.8-4.5,4.2c-0.9,0.7-1.7,1.4-2.3,2.2c-0.3,0.1-0.6,0.3-1,0.4c-2.5,1.1-3,4.7-1.8,6.8c1.2,2.1,3.3,2.7,5.4,2.2
		c0.2,0,0.4,0,0.6,0c3.2,0.1,6.2-0.6,9-2.1c0.5-0.2,0.9-0.5,1.4-0.8c0.6-0.2,1.1-0.4,1.7-0.6C510.3,562.7,517,559.4,516.8,553.1z"/>
</g>
<g id="Layer_5">
	<path class="st3" d="M568.3,521.9c-0.1-3.1-0.2-6.6-0.5-10.9c-0.2-4.1-0.6-8.2-1.1-12.2c-1.5-4.8-2.2-9.7-2.3-14.8
		c-2.6-13.3-6.6-26-12.2-37.5c-4.2-8.7-7.5-14.2-11.5-18.3c-1-0.9-2-1.7-3-2.7c-4.2-3.3-9.3-5.7-16.7-8.8
		c-17-7.1-20.6-17.7-20.6-17.7c-4.3-15.6-46.1-10.6-70.9-18.4c-24.8-7.8-30.5,0-43.2,0c-12.8,0-19.1,5.7-33.3,8.6
		c-12.6,2.6-19.6,20.7-28,26.6c-1.1,1.2-2.4,1.7-3.6,1.8c-9.7,3.1-18,17-20.1,24.2c-0.3,1-0.6,2.2-0.8,3.3c-0.2,1.5-0.5,2.9-0.8,4.4
		c-0.9,4.7-1.9,10.2-4.4,16c-1.3,4-2.8,7.8-5.6,11.2c-2.4,2.9-4.9,6-7.7,8.7c-3.7,5.1-6.4,10.5-6.8,20.6c-0.7,17.7,8.5,35.4,12.8,44
		c0.3,0.5,0.5,1,0.6,1.5c0.8,0.9,1.4,2.1,1.4,3.7c0.1,3.7-1,7.2-1.7,10.8c-0.2,1-0.3,2.1-0.4,3.3c0,0.6,0,1.2,0,1.8
		c0.2,2.9-0.2,6-0.2,9c0.1,1,0.2,1.9,0.3,3c0.1,1.1,0.3,2,0.5,2.9c0,0.1,0,0.1,0.1,0.2c0.2,0.5,0.3,0.9,0.3,1.4
		c3.3,12.6,12.3,11.1,16.2,15.6c1.1,1.3,3.2,3.7,5.8,6.6c0.2,0.2,0.4,0.4,0.6,0.6c0.9,1,1.8,2,2.6,3c6.5,7.4,14.2,16.3,17.3,20.3
		c3.4,4.3,7.7,5.7,12.8,6.6c0,0,0,0,0.1,0c8.2-0.1,16.6,2.7,24.7,4.1c3.4,0.6,6.4,1.8,9.1,4c0.5,0.4,1.1,0.8,1.6,1.1
		c6.3,2.4,13.2,5.3,20.4,8.9c13.5,6.7,29,5.2,44.5,0.4c4-1.7,8-3.4,12.3-4.7c1-0.3,1.9-0.6,2.9-1c3.8-1.6,7.6-3.4,11.3-5.2
		c14.5-7,29-14.4,42-21.1c6.2-6.1,14.9-9.4,23-12.3c0,0,0.1,0,0.1,0c14.9-8.8,5.1-15.1,8.6-25.7c2.4-7.4,7.7-17.9,12.4-27.4
		c0.8-2,1.7-3.9,2.8-5.7c1.2-2.5,2.3-4.8,3.2-7c2.7-6.3,4.4-10,5.1-15.9c-0.5-2.9-0.3-5.9,0.1-8.9
		C568.1,523.1,568.2,522.5,568.3,521.9z"/>
	<path class="st3" d="M443,483.9c0,0-18.4-24,0-33.9c18.4-9.9,18.4-12.1,28.4-4.3"/>
	<path class="st3" d="M434.8,425.9c0,0-6.7,18.9-23.7,15.1c-17-3.8-17.7-5.9-21.3-15.1"/>
	<path class="st3" d="M389.9,550.7c0,0-12.8-22.5-5-30.7c7.8-8.3,14.9-14.6,22-11.8"/>
	<path class="st3" d="M317.5,507.4c0,0,32.6-1.4,36.9-17c4.3-15.6,3.5-22-4.3-29.8"/>
	<path class="st3" d="M369.3,608.8c0,0-12.8-16.3-24.1-8.5s0.7,26.2,5.7,28.4c5,2.1,27.7,14.9,39-5.7"/>
	<path class="st3" d="M509,544.3c0,0-27.7,13.5-19.9,28.4"/>
	<path class="st3" d="M517.5,467.7c0,0-11.3,8.5-8.5,16.3c0,0,5.7,31.9,29.1,23.4"/>
	<path class="st3" d="M471.4,453.1c0,0-5.4-5.4-12-1.5s-15.7,13.8-11.8,18.4s11.4,12.3,11.4,12.3"/>
	<path class="st3" d="M454.6,477.6c0,0,15.6-7.8,11.4-27.3"/>
	<path class="st3" d="M520.5,473.4c0,0-5,12.3,0,16.9s6.1,13.8,15.7,9.2s14.6-11.3,13.4-15.4"/>
	<path class="st3" d="M546.3,492.3c0,0-13.6-15.7-26.2-5.2"/>
	<path class="st3" d="M397.5,425.3c0,0,3.4,10.5,12.1,8.4c8.7-2,15.6-7.8,15.6-7.8"/>
	<path class="st3" d="M343.9,467.7c0,0,7.3,7.6,1.5,16.2c-5.7,8.6-15.7,11.3-20.3,10.9c-4.6-0.4-18.8-4.9-12.6-13.5
		s16.8-7.9,16.8-7.9"/>
	<path class="st3" d="M404.8,513.6c0,0-9.2,4.6-10.2,11.1s-8.6,11.1,0,15.3"/>
	<path class="st3" d="M403.3,519.9c0,0,6.1,12.4,3.6,18.6"/>
	<path class="st3" d="M374,602.8c0,0-11-15.3-24-14.2"/>
	<path class="st3" d="M365.2,604.5c0,0-10.9,11-19.3,8.3"/>
	<path class="st3" d="M403.3,622.7c0,0-1.1,16.9-18.8,15.3"/>
	<path class="st3" d="M485.6,576.4c0,0-12.6-3.8-7.6-14.9c5-11.1,6.9-11.1,11.9-19.1c5-8,2.7-17.6,2.7-17.6"/>
	<path class="st3" d="M488,565c0,0,18.2,4.2,25.6-6.6"/>
</g>
<g id="Layer_3">
	<path class="st4" d="M423.2,234.7c-1.3-2-3.3-3.6-5.6-4.5c0.6-3-1.1-6.5-5.1-6.5c-5.3,0-6.5,6.3-3.7,9.2c-3.5,2.6-2.4,9.6,3.1,9.7
		c0.9,0.5,2,0.7,3,0.7c0.1,0.1,0.2,0.1,0.3,0.2c2.3,1.6,5.6,0.9,7.4-1.1C424.6,240.4,424.7,237.1,423.2,234.7z"/>
	<g>
		<path class="st5" d="M485.6,338.8C485.6,338.8,485.6,338.8,485.6,338.8C485.6,338.8,485.6,338.8,485.6,338.8
			C485.6,338.8,485.6,338.8,485.6,338.8z"/>
		<path class="st5" d="M518.8,99.7c-10.9-32.3-43.2-45.8-74.7-49.3c-14.9-1.6-30.9-1.8-45.1,3.5c-8.5,3.2-16.5,7.6-23.6,13.2
			c-15.2,9.8-33.6,29-34.2,48.2c-1.8,2.6-2.9,5.6-2.7,8.9c0.1,2.6,0.8,5.1,2,7.4c-0.5,4-0.6,8,0.1,11.8c0.2,0.9,0.4,1.8,0.7,2.6
			c-6.3,6.8-9.6,15.1-7.8,24.4c1.3,6.8,5.2,12.3,9.1,17.7c8.1,11.3,16.6,22.5,25.2,33.4c2.6,3.3,5.3,6.9,8.1,10.2
			c-0.9,4.5-1.2,9.3-1.8,13.7c0,0.3-0.1,0.7-0.2,1.3c-0.2,1.2-0.4,2.4-0.6,3.6c-0.4,2.4-0.8,4.8-1.3,7.2c-1.1,5.4-2.7,10.6-4.3,15.9
			c-3.5,11.2-4.6,22.4-2.2,34c1.3,6.5,3.9,13.3,8,18.7c-0.7,1-1.2,2.1-1.4,3.2c-2.9,14.7,2.1,29-0.5,43.7
			c-2.9,16.5,1.2,32.6,3.9,48.8c1,5.8,8.7,10,14.1,8c14.3-5.2,15.8-21.8,19.3-34.6c2.8-10.3,5.3-20.5,6.4-31
			c2.1-6.2,3.9-12.5,5.5-18.9c0.3-1.2,0.5-2.4,0.7-3.6c7.2,1.1,14.4,2.2,21.6,2c0.1,0.7,0.2,1.3,0.4,2c0,0.2,0.1,0.3,0.1,0.5
			c-0.1,0.5-0.2,1-0.2,1.5c-0.3,6.7-3.4,12-1,18.9c0.7,2,1.6,3.9,2.5,5.8c-0.4,0.6-0.7,1.2-1,1.8c0.9,1.7,1.4,4.3,0.6,6.1
			c-0.1,0.2-0.1,0.4-0.2,0.5c1.6,2,2.2,4.7,1.8,7.2c0.4,1.3,0.9,2.5,1.5,3.7c1,2.1,2.9,3.8,4,5.7c0.4,1,0.8,2,1.3,2.9
			c0.1,0.3,0.2,0.5,0.2,0.8c1.1,6.6,2.4,13.2,4.8,19.5c3.5,9.3,15.9,9.7,19.3,0c1.9-5.5,3.9-11.1,5.8-16.6c0-4.9-0.9-10,1.9-14.3
			c-0.1-0.3-0.3-0.5-0.5-0.8c3.7-12.3,5-24.9,3.3-37.9c-0.1-0.7-1.7-10.1-2.1-12.2c-0.1,0.7-0.7,2.1-0.8,1.8c-0.1-0.2,0.3-1,0.8-1.8
			c-0.1-0.3-0.1-0.4-0.1-0.4c0.1,0,0.2,0.1,0.1,0.4c0.5-0.8,1-1.6,1.1-1.8c3.4-6.5,4.8-13.2,5.8-20.2c0.4,2.7,1.7,5.1,4.4,6.7
			c3.6,2.1,8.6,1.6,11.5-1.5c2.8-2.9,4.1-6.2,4.5-9.8c0.4-0.7,0.7-1.4,0.9-2.2c-0.7-2-1-3.9-0.6-6.1c0.1-0.7,0.4-1.5,0.7-2.1
			c0-3.7,0.2-7.3,0.7-11c-0.1-0.6-0.2-1.1-0.3-1.7c0-0.1-0.1-0.2-0.1-0.4c-1.1-3.5-1.7-7.1-0.8-10.6c-0.4-0.5-0.9-1-1.4-1.5
			c0-11.3-1.4-22.6-2.2-33.7c-0.8-10-2.2-19.1-6.7-28.1c-3.3-6.7-8.1-12.6-13-18.2c0.4-0.1,0.9-0.2,1.3-0.3
			c-0.1-0.1-0.2-0.3-0.3-0.4c-0.9-1.7-0.8-4.1,0.7-5.4c4-3.6,8.8-6.3,12.7-10c1.2-2.5,2.4-5,3.6-7.5c5.1-4.3,8.9-9.5,10.3-16.3
			c0.8-4.2,0.7-8.2,0.6-12.3C522.9,129.7,523.9,114.7,518.8,99.7z M377,122.5c-0.6,0.2-1.3,0.4-1.9,0.6c0.4-1.3,0.8-2.5,1.2-3.7
			c0.6-1.8,1.4-3.7,2.3-5.6C377.9,116.6,377.4,119.6,377,122.5z M400,162.8c0.2-0.2,0.4-0.3,0.6-0.5c0.1,0.3,0.3,0.7,0.4,1
			C400.7,163.1,400.3,163,400,162.8z M417,309.1c0.3-0.4,0.6-0.8,1-1.3c0.6,0.6,1.2,1.2,1.9,1.7C418.9,309.3,417.9,309.2,417,309.1z
			"/>
	</g>
	<path class="st6" d="M374.4,231.6c-0.3-2.8-2.1-4.8-4.9-5.8c-0.4-0.2-0.9-0.2-1.2-0.2c-0.4-1.2-1.1-2.1-2-2.7
		c-0.1-0.6-0.2-1.2-0.3-1.8c-0.6-3.1-2.6-4.6-5-5l-2.8-3.9c-0.3-0.7-0.4-1.4-0.3-2c0.7-3.8-5.1-5.4-5.8-1.6
		c-0.3,1.7-0.2,3.2,0.2,4.6c-1.6,11.3-3.3,22.6-4.9,33.9c-0.5,3.2-1.2,6.8,0.8,9.6c-0.6,1.5-0.7,3.2-0.2,4.8c-1,6-1.1,12.2-0.7,18.5
		c0,0.2,0,0.4,0,0.5c-2.1,1.9-2.5,5.4-1.1,7.8c-0.2,0.2-0.4,0.5-0.6,0.7c0.1,0.4,0.1,0.8,0.1,1.2c0,0.2,0,0.4,0,0.5c0,0,0,0,0,0.1
		c0.1,0.5,0.3,1,0.5,1.5c0.3,0.8,0.6,1.6,0.9,2.4c0.4,1.1,0.8,2.2,1,3.4c0.2,0.1,0.4,0.1,0.6,0.2c1,0.3,1.9,0.6,2.8,1
		c1.7,2,4.1,3,7.5,2.2c0.4,0.8,1.3,1.5,2.5,1.5c3.2,0,3.7-4.2,1.6-5.6c0.4-1.6,0.2-3.3-0.6-4.8c1.6-3.9,1.9-9,2.7-12.5
		c1.4-6.2,2.3-12.2,2.3-18.3c2-1.6,2.6-4.6,1.7-7c1.3-1.8,2.2-4,2.6-6.6c0.3-1.6,0.4-3.3,0.5-5c1.1-2.5,2.3-5,3.4-7.5
		C376.3,234.3,375.6,232.4,374.4,231.6z"/>
	<path class="st7" d="M478.4,399.5c-3.7-0.6-6.4,0-10,1c-0.5,0.1-0.9,0.2-1.4,0.3c1.2-3.3,1.6-6.9,2.2-10.5c1-6.2,2-12.4,3-18.5
		c2-12.4,4-24.7,6.1-37.1c0.9-5.7-7.7-8.1-8.7-2.4c-0.1,0.4-0.1,0.7-0.2,1.1c-1.3-0.2-2.8,0-4,1c-3.3,2.6-7.1,4.7-11.1,6
		c-1.8,0.6-3.9,0.8-5.9,1.3c-0.5-0.2-1-0.3-1.7-0.3c-3.8,0-5.1,3.9-3.9,6.5c-0.2,1.2-0.2,2.5-0.3,3.6c-0.3,4.5-0.1,8.9,0.5,13.4
		c0.7,6.1,2.1,12.1,3.6,18.1c-0.5,1.1-0.4,2.4,0.5,3.7c1.4,2,0.3,4.6,0.3,6.9c0,1.9,0.4,3.8,1.5,5.5c0.5,0.7,1,1.3,1.7,1.9
		c-1.4,1.9-1.3,4.8,0.2,6.6c0.1,1.3,0.5,2.5,1.4,3.5c-0.1,0.3-0.2,0.6-0.2,0.9c0.7,0.9,1.2,1.9,1.4,3c0.8,4,3.8,7.5,6.4,11.2
		c0.8,0.4,1.6,0.7,2.5,1c0.8,1.2,2.1,2,3.9,2c2.2,0,3.7-1.2,4.4-2.8c2.8-1.8,4.7-5.1,5.8-8.5c0.1-0.1,0.1-0.2,0.2-0.3
		c0.9-1.1,1.7-2.4,2.3-3.7c0.4-0.8,0.6-1.6,0.7-2.4c1.5-0.7,2.7-2,3.2-3.9C483.8,404.5,481.9,400.1,478.4,399.5z"/>
	<path class="st7" d="M513.3,303.9c0.1-0.8,0.4-1.6,0.8-2.4c-1.3-1.2-3.2-1.9-4.9-1.6c-2.3,0.4-4.6,0.9-7,1.4
		c0.1-0.1,0.1-0.3,0.1-0.4c3.2-13.4,1.6-27.5-0.2-41c-1.9-14-5.1-27.8-9.5-41.3c-1.2-3.7-7-2.1-5.8,1.6c4.1,12.6,7.2,25.5,9.1,38.6
		c1.9,13.1,3.7,27.4,0.6,40.5c-0.3,1.3,0.2,2.4,1,3c-1.5,0.7-2.5,2.1-2.6,4.2c0,1.3-1.1,2.7-1.1,4.1c-0.1,1.7,0.3,3.3,1.1,4.8
		c-0.3,0.9-0.3,1.8-0.1,2.8c0.1,0.4,0.2,0.9,0.3,1.3c0.1,0.2,0.1,0.5,0.1,0.7c0.1,0.9,0.1,1.9,0.1,2.8c0,0.2,0,0.4,0,0.7
		c0.1,0,0.2,0,0.4,0c2.2,0,3.8,1,4.7,2.4c1,0.2,1.8,0.6,2.5,1.2c0.8-0.5,1.5-1.3,1.9-2.2c0.4,0.1,0.8,0.2,1.3,0.2
		c1.2,0,2.7-0.5,3.5-1.5c1.4-1.5,1.9-4.1,0.9-5.9c0.3-0.7,0.6-1.4,0.7-2.2c0.5-2.4,1.1-4.5,2.2-6.6
		C513.1,307.5,513,305.8,513.3,303.9z"/>
	<path class="st7" d="M485.8,187.7c-22.3,6.3-45.7,7.5-68.5,3.1c-5.7-1.1-8.1,7.6-2.4,8.7c24.4,4.6,49.4,3.6,73.3-3.1
		C493.8,194.8,491.4,186.1,485.8,187.7z"/>
	<path class="st8" d="M514.5,87.7c0,0-65.5-9.6-111.2,5.9l-5.5,10.1l-1.7,5.7l-1,6.5c0,0,11.9,0.2,10.1,7.3
		c-1.8,7.2-7.5,20.2-7.5,20.2l-1.5,6.6c0,0,1.9,21.8,10.9,25.2c9,3.5,56.1,17.5,94,7.4c0,0,23.4-15.8,21.5-55.3
		C520.7,87.9,514.5,87.7,514.5,87.7z"/>
	<path class="st7" d="M405.6,400.3c-3.6,0.6-7.3,0.9-11,1c-0.2-1.7-0.7-3.3-1.5-4.7c-1.1-9.8-2.2-19.7-2.5-29.6
		c-0.3-11.5,1.6-22.2,4.9-33.2c0.1-0.2,0.1-0.5,0.2-0.7c0-2.7,0.6-5.5,1-8.4c0.2-1.1,0.3-2.2,0.3-3.3c-0.1-1.3-0.2-2.7-0.3-4
		c0-0.1-0.1-0.2-0.1-0.4c-2.6-7.5-6.8-14.5-8.9-22.2c-2.2-7.9-1.7-15.4,0-23.3c0.8-3.8,1.9-7.4,3.4-11c0.6-1.3,1.1-2.5,1.5-3.6
		c-0.1-6.3-0.5-12.6-1.3-18.8c-0.7-6.3-2-12.9-5.2-18.4c-3.5-6-8.3-11.2-13.4-15.9c-3.9-3-7.5-6.5-10.3-10.3
		c-4.8-6.5-11.1-12.4-14.3-20c-3.6-8.6-0.8-16.5,6.2-22.4c3.6-3,7.6-5.8,11.8-7.7c3.7-1.7,7.4-4.7,11.3-5.5c1-0.2,1.9-0.2,2.7,0
		c0.6-0.7,1.2-1.5,1.6-2.4c1-1.7,1.2-3.4,0.9-5c2.5,1.6,4.7,3.8,6.1,6.4c-0.3,1.7,0.6,3.6,2,4.7c0.1,1.6,0.5,3.1,1.2,4.6
		c0.1,0.2,0.2,0.3,0.4,0.5c-0.1,0.1-0.2,0.2-0.2,0.3c-0.1,0.2-0.2,0.4-0.4,0.7c-0.3,0.2-0.6,0.5-0.9,0.9
		c-4.3,6.8-13.3,10.9-19.8,15.3c-0.1,0.1-0.1,0.1-0.2,0.2c-1.5,1-2.2,3-0.6,4.5c1.2,1.1,2.5,2.1,3.8,3c1.8,2.7,5.2,4.2,7.4,6.7
		c0.8,0.9,1.5,1.8,2.3,2.8c0.9,0.6,1.8,1.2,2.7,1.8c1.9,2.5,3.6,5.2,4.4,7.6c0.5,1.3,1.5,1.9,2.6,2c0.1,0.2,0.2,0.3,0.4,0.5
		c3.2,3.2,7.2,4.3,11.6,3.4c1.3-0.3,1.8-1.9,1.2-2.9c-3.4-5.9-5.7-12.2-7.6-18.6c-1.6-6-3.4-12-2.2-18c0.3-1.4-0.1-2.6-0.9-3.5
		c0.3-1.1,0.8-2.2,1.4-3.2c1.1-1.9-0.1-3.7-1.7-4.3c0.1-0.3,0.1-0.7,0-1.1c-0.1-0.9,1-2,1.4-2.7c0.1-0.1,0.2-0.3,0.2-0.4
		c1.4-1,2.4-2.7,2.2-4.4c0.2-0.3,0.3-0.6,0.5-0.9c0.1-0.2,0.3-0.4,0.4-0.6c0.2-0.3,0.4-0.6,0.6-0.9c0.2-0.2,0.7-0.8,0.8-0.9
		c0,0,0,0,0,0c1,0.2,1.9-0.5,2.2-1.4c0.8-2,1.7-4.2,1.2-6.3c-0.1-0.2-0.1-0.4-0.2-0.5c0.2-1.6,0.1-3.2-0.7-4.8
		c-1.8-3.8-5.5-4.9-9.4-5c-2.1-0.1-3.5,0.9-4.2,2.3c-0.2,0-0.4,0-0.6,0c-2.2,0.1-3.6,1.6-5.4,2.2c-2.4-1-5.1-0.4-6.5,1.9
		c-1.1,0.7-2.3,1.4-3.5,2c-0.6,0-1.1,0.1-1.7,0.2c0.2-0.1,0.4-0.3,0.6-0.4c1.5-1.2,0.1-3.3-1.4-3.4c-9.2-0.6-11.2-8.4-10.9-16.1
		c0.3-1.1,0.6-2.3,0.9-3.4C367.7,84,381.6,71.2,397,63c5.7-3,0.6-11.7-5-8.6c-4.8,2.6-9.5,5.6-13.9,9c-0.3-0.3-0.7-0.5-1.1-0.6
		c-5.4,6.1-13.6,10.1-19.8,14.6c0,0,0,0,0,0c-5.1,5.9-9.6,12.4-12.7,19.3c-2.1,4.9-2.9,9.9-3.3,15.1c-0.4,0.5-0.8,1.1-1.1,1.8
		c-1.7,4.1-2.4,8.6-2.1,13.1c0,0.3,0.1,0.5,0.1,0.8c-0.3,2,0.2,4,1.6,5.4c-0.2,2.9-0.4,5.8-0.6,8.6c-0.1,2,1.1,3.6,2.8,4.4
		c-0.1,0.1-0.3,0.3-0.4,0.4c-9.4,8.4-10.5,20.2-5.4,31.4c3.2,6.9,8.6,12.2,13.5,17.8c0,1.2,0.4,2.4,0.9,3.5c1.5,3,3.3,5.8,5.3,8.5
		c0.3,0.5,0.7,0.9,1.1,1.3c0.5,1.4,1.4,2.8,2.7,4.1c1.1,1.1,2.2,2.3,3.3,3.5c2,3.5,4.3,6.7,7.1,9.4c2.1,3.7,3.4,7.5,5.8,10.9
		c-4.8,13.6-9.9,27.2-11.5,41.6c-0.3,2.8-0.3,5.6-0.2,8.3c-0.8,1.1-1.4,2.4-1.8,3.8c1.5,6.2,2.9,12.4,2.7,18.9c0,0.3,0,0.6-0.1,0.9
		c0.9,2.1,1.9,4.1,3.1,6c0,1.9,0.5,3.8,1.5,5.7c1,1.8,1.9,3.6,2.9,5.4c0,0.1,0.1,0.2,0.2,0.2c0.2,0.5,0.4,0.9,0.6,1.4
		c-3.5,11.8-5.6,24.1-5.5,36.4c0.1,12,1.7,23.9,3,35.8c-0.4,0.9-0.5,2-0.2,3c-0.8,1.3-1,2.9-0.1,4.1c4.6,6.4,4.3,20.8,13.8,22.3
		c1.6,1.3,3.9,1.9,5.8,1.2c2.2-0.7,3.7-2.3,4.4-4.2c1-0.7,2.1-1.4,3.1-2.1c3.6-2.4,5.1-6.2,6.6-10.1c0.6-1.2,1.1-2.6,1.5-4
		c0.2-0.6,0.2-1.1,0.1-1.6c0.9-0.3,1.5-0.8,1.8-1.5c0.5-2.2,1.2-4.3,1.9-6.4C408.6,400.6,407.2,400,405.6,400.3z M356.7,133.9
		c0.2,0.1,0.4,0.2,0.6,0.3c0,0,0,0-0.1,0.1c-0.2,0.1-0.4,0.2-0.6,0.3c-0.1,0-0.1,0.1-0.2,0.1C356.5,134.4,356.6,134.1,356.7,133.9z"
		/>
	<path class="st5" d="M380,115.1c-0.1-1-0.5-1.9-1.5-2.3c-0.8-0.3-2.1-0.3-2.7,0.5c-0.8,1-1.1,1.8-1.3,3.1c-0.1,0.6,0.2,1.1,0.5,1.5
		c-0.1,0.9-0.3,1.9-0.6,2.8c-1,3.1,3.8,4.4,4.8,1.3C380,119.8,380.3,117.5,380,115.1z"/>
</g>
<g id="Layer_2">
	<path class="st9" d="M416.2,223.2c-1.9-0.1-3.8,0.3-5.4,1.1l-0.5,12.2l3.5-3.8l1.7,0.1l-3,3.3l3,5.5l-1.8-0.1l-2.3-4.5l-1.2,1.1
		l-0.1,3.2l-1.5-0.1l0.7-16c-2.8,2-4.8,5.2-4.9,8.9c-0.3,6.3,4.6,11.6,10.9,11.9s11.6-4.6,11.9-10.9
		C427.3,228.8,422.4,223.5,416.2,223.2z M418.8,240.6c1.8,0.1,1.8-1.8,1.8-1.8l1.5,0.1c0,0-0.1,3.1-3.4,3c-3.8-0.2-3.3-4.6-3.3-4.6
		l0-0.2c0,0,0-4.4,3.7-4.3c3.3,0.1,3.2,3.2,3.2,3.2l-1.5-0.1c0,0,0.1-1.8-1.7-1.9c-1.8-0.1-2.1,1.9-2.2,3.1l0,0.2
		C416.9,238.5,417.1,240.5,418.8,240.6z"/>
	<path class="st3" d="M441.1,342.4c0,0,5.4,91.5,26.8,86.7c21.4-4.8,20.1-94.3,20.1-94.3s0.2-10.3,2.2-15.5c2-5.2,8.8-19.1,8-46.5
		S488,218.5,488,218.5"/>
	<path class="st3" d="M481.1,323.3"/>
	<path class="st3" d="M481.1,323.3c-27,29.8-62.3,15.9-62.3,15.9v3.2c0,0-5.6,90.9-32.6,89.3c-27-1.6-14-102.2-14-102.2
		s-11.7-25.6-8.9-47.5s12.4-42.3,12.8-48.6c0,0,2.1-14.2-6.3-26.5"/>
	<path class="st3" d="M488,192c0,0,17.3,17.9,21.3,44.5s8.6,85.8-2.9,89.8c-11.5,4-13.5-14.2-13.5-14.2"/>
	<path class="st3" d="M455.9,204.6c0,0,10.9,112-6,130.3"/>
	<path class="st3" d="M376,233.4c0,0-43.5-50.7-41.9-71.7s61-53.9,70.2-42.4s-20,38.2-34.3,45.8"/>
	<path class="st3" d="M362.8,161.1c0,0,13.4,7.8,33.3,33.7"/>
	<path class="st3" d="M341.4,146.6c-1.8-6.1-2.8-12.6-2.8-19.2c0-43.9,42.2-79.5,94.2-79.5c35.8,0,66.9,16.8,82.9,41.6
		c7.3,11.3,6.9,31.7,6.9,45.4c0,26.6-11,42.6-34.7,57c0,0-34.2,5.1-49.2,1.6"/>
	<path class="st3" d="M514.5,87.7c0,0-64.5-9.9-111,5.6c0,0-8.1,8.2-7.4,23.7"/>
	<path class="st3" d="M396.3,143.3c0,0-1.4,23.6,9.7,31.1s69.9,15.8,94.8,8.1"/>
	<path class="st3" d="M353.4,204.6c0,0-9.9,65.5-6.9,91.3c0,0,4.7,6.8,16.3,6.7"/>
	<path class="st3" d="M409.5,400.2c0,0-26.4,2.9-39.8-2.6"/>
	<path class="st3" d="M513.5,300.1c0,0-9.7-2.3-17.9,2.5"/>
	<path class="st3" d="M488,193.6c0,0-39.6,9.7-65.3,3.1"/>
	<path class="st3" d="M448.9,399.3c0,0,22.2,4.6,34.4,0"/>
	<path class="st3" d="M376.2,124.9c0,0,12.8,8.7,15.5,20"/>
	<path class="st3" d="M389.6,113.5c0,0,0-23.7,6.6-26s32.2-11.1,50.6-10.3"/>
	<path class="st3" d="M369.8,299.5c0,0,1.6,20.8,8.5,27.3c0,0-2.2,46.7-2,54"/>
	<line class="st3" x1="445.3" y1="342" x2="449.9" y2="377"/>
	<path class="st3" d="M466.1,242.6c1.2,16.4,1.2,13.6,0,45.6"/>
</g>
</svg>
