<svg viewBox="0 0 129.35 112.13" xmlns="http://www.w3.org/2000/svg"><path d="m602.83 332.66h-25.52a6.83 6.83 0 0 1 -6.81-6.81v-81a6.83 6.83 0 0 1 6.81-6.81h110.38a6.83 6.83 0 0 1 6.81 6.81v81a6.83 6.83 0 0 1 -6.81 6.81h-20.61" fill="none" stroke="#464646" stroke-miterlimit="10" stroke-width="5.35" transform="translate(-567.83 -235.36)"/><path d="m2.67 20.88h125.34" fill="none" stroke="#464646" stroke-miterlimit="10" stroke-width="5.35"/><circle cx="96.88" cy="11.75" fill="#464646" r="3.63"/><circle cx="106.13" cy="11.75" fill="#464646" r="3.63"/><circle cx="115.88" cy="11.75" fill="#464646" r="3.63"/><g fill="none" transform="translate(-567.83 -235.36)"><path d="m614.13 287.51a13.86 13.86 0 0 1 -.3-2.87 12.82 12.82 0 1 1 25.63 0 13.84 13.84 0 0 1 -.36 3.14" stroke="#e18f45" stroke-miterlimit="10" stroke-width="3.26"/><path d="m609.33 288.82a14.26 14.26 0 0 1 -.92-6c.56-7.84 8.23-16.43 18.17-16.59 10.29-.17 18.13 8.79 18.83 16.84a15.12 15.12 0 0 1 -.92 6.5" stroke="#e18f45" stroke-miterlimit="10" stroke-width="3"/><path d="m638.73 317.05v-13.9a3.36 3.36 0 0 0 -3.35-3.35h-.59a3.34 3.34 0 0 0 -2.4 1c-.59.6-1 2.94-1 2.94" stroke="#464646" stroke-width="5"/><path d="m622.41 316.24.63-26c0-1.81 1.18-6.16 3-6.16h2.23c1.84 0 2.91 4.62 2.91 6.44l.41 24.39" stroke="#464646" stroke-width="5"/><path d="m638.72 307.3v-.3a3.36 3.36 0 0 1 3.35-3.35h.59a3.36 3.36 0 0 1 3.34 3.35v12.48" stroke="#464646" stroke-width="5"/><path d="m646.14 308.69a3.36 3.36 0 0 1 2.78-1.48h.59a3.36 3.36 0 0 1 3.35 3.35v9.82" stroke="#464646" stroke-width="5"/><path d="m652.86 320.06v10.94a11.92 11.92 0 0 1 -1.42 4.17c-1.28 2.41-3.78 4.13-3.67 10.91" stroke="#464646" stroke-width="5"/><path d="m622.91 347.18-1-8.33s-4.35-2.53-5.28-5.64-5.43-22.66-6.86-24.94.85-5.86 3.85-3.76 6.73 12.56 8.38 12.25" stroke="#464646" stroke-width="5"/><path d="m621.79 316.75s.83.63.63-.72" stroke="#464646" stroke-width="5"/></g></svg>